<svg xmlns="http://www.w3.org/2000/svg" width="430" height="430" style="width:100%;height:100%;transform:translate3d(0,0,0);content-visibility:visible" viewBox="0 0 430 430"><defs><clipPath id="c"><path d="M0 0h430v430H0z"/></clipPath><clipPath id="e"><path d="M0 0h430v430H0z"/></clipPath><clipPath id="d"><path d="M0 0h430v430H0z"/></clipPath><filter id="a" width="100%" height="100%" x="0%" y="0%" filterUnits="objectBoundingBox"><feComponentTransfer in="SourceGraphic"><feFuncA tableValues="1.0 0.0" type="table"/></feComponentTransfer></filter><mask id="f" mask-type="alpha"><g filter="url(#a)"><path fill="#fff" d="M0 0h430v430H0z" opacity="0"/><use xmlns:ns1="http://www.w3.org/1999/xlink" ns1:href="#b"/></g></mask><g id="b" style="display:none"><path/><path/></g></defs><g clip-path="url(#c)"><g clip-path="url(#d)" style="display:block"><path fill="#F5161F" d="M115 42.5h-230c-16.569 0-30-13.431-30-30v-55h290v55c0 16.569-13.431 30-30 30z" class="secondary" style="display:block" transform="translate(215 342.5)"/><path fill="#F5161F" d="M115 42.5h-230c-16.569 0-30-13.431-30-30v-55h290v55c0 16.569-13.431 30-30 30z" class="secondary" style="mix-blend-mode:multiply;display:block" transform="translate(215 342.5)"/><g opacity=".5" style="mix-blend-mode:multiply;display:block"><path fill="#F5161F" d="M100 385h23.411C115.328 379.625 110 370.435 110 360v-5h225c13.807 0 25-11.193 25-25v-30H70v55c0 16.569 13.431 30 30 30z" class="secondary" opacity="1"/></g><path fill="#F5161F" d="M-115-145c-16.569 0-30 13.431-30 30v230c0 16.569 13.431 30 30 30h230c16.569 0 30-13.431 30-30v-230c0-16.569-13.431-30-30-30h-230z" class="secondary" style="display:block" transform="translate(215 190)"/><g opacity=".5" style="mix-blend-mode:multiply;display:block"><path fill="#F5161F" d="M70 75c0-16.569 13.431-30 30-30h40c-16.569 0-30 13.431-30 30v230c0 16.569 13.431 30 30 30h-40c-16.569 0-30-13.431-30-30V75z" class="secondary" opacity="1"/></g><path fill="none" stroke="#FFF" stroke-linecap="round" stroke-linejoin="round" stroke-width="7" d="M51.111 80H-51.111V57.259c0-9.334 4.88-17.988 12.867-22.818L33.8-6.441a26.665 26.665 0 0 0 12.867-22.818v-15.185C46.667-64.081 30.748-80 11.111-80h-26.667c-19.637 0-35.555 15.919-35.555 35.556v15.555" class="primary" style="display:block" transform="translate(220.111 190)"/></g><g clip-path="url(#e)" style="display:none"><path class="secondary" style="display:none"/><path class="secondary" style="mix-blend-mode:multiply;display:none"/><path class="secondary" style="mix-blend-mode:multiply;display:none"/><g style="display:none"><path class="secondary"/><path class="secondary"/></g><g mask="url(#f)" style="mix-blend-mode:multiply;display:none"><path class="secondary"/><path class="secondary"/></g><path class="secondary" style="display:none"/><path class="secondary" style="mix-blend-mode:multiply;display:none"/><path fill="none" class="primary" style="display:none"/></g></g></svg>