<svg xmlns="http://www.w3.org/2000/svg" width="430" height="430" style="width:100%;height:100%;transform:translate3d(0,0,0);content-visibility:visible" viewBox="0 0 430 430"><defs><clipPath id="c"><path d="M0 0h430v430H0z"/></clipPath><clipPath id="e"><path d="M0 0h430v430H0z"/></clipPath><clipPath id="d"><path d="M0 0h430v430H0z"/></clipPath><filter id="a" width="100%" height="100%" x="0%" y="0%" filterUnits="objectBoundingBox"><feComponentTransfer in="SourceGraphic"><feFuncA tableValues="1.0 0.0" type="table"/></feComponentTransfer></filter><mask id="f" mask-type="alpha"><g filter="url(#a)"><path fill="#fff" d="M0 0h430v430H0z" opacity="0"/><use xmlns:ns1="http://www.w3.org/1999/xlink" ns1:href="#b"/></g></mask><g id="b" style="display:none"><path/><path/></g></defs><g clip-path="url(#c)"><g clip-path="url(#d)" style="display:block"><path fill="#F5161F" d="M115 42.5h-230c-16.569 0-30-13.431-30-30v-55h290v55c0 16.569-13.431 30-30 30z" class="secondary" style="display:block" transform="translate(215 342.5)"/><path fill="#F5161F" d="M115 42.5h-230c-16.569 0-30-13.431-30-30v-55h290v55c0 16.569-13.431 30-30 30z" class="secondary" style="mix-blend-mode:multiply;display:block" transform="translate(215 342.5)"/><g opacity=".5" style="mix-blend-mode:multiply;display:block"><path fill="#F5161F" d="M100 385h23.411C115.328 379.625 110 370.435 110 360v-5h225c13.807 0 25-11.193 25-25v-30H70v55c0 16.569 13.431 30 30 30z" class="secondary" opacity="1"/></g><path fill="#F5161F" d="M-115-145c-16.569 0-30 13.431-30 30v230c0 16.569 13.431 30 30 30h230c16.569 0 30-13.431 30-30v-230c0-16.569-13.431-30-30-30h-230z" class="secondary" style="display:block" transform="translate(215 190)"/><g opacity=".5" style="mix-blend-mode:multiply;display:block"><path fill="#F5161F" d="M70 75c0-16.569 13.431-30 30-30h40c-16.569 0-30 13.431-30 30v230c0 16.569 13.431 30 30 30h-40c-16.569 0-30-13.431-30-30V75z" class="secondary" opacity="1"/></g><path fill="none" stroke="#FFF" stroke-linecap="round" stroke-linejoin="round" stroke-width="7" d="M17.778 0c19.637 0 35.555 15.919 35.555 35.556v8.888C53.333 64.081 37.415 80 17.778 80h-35.556c-19.637 0-35.555-15.919-35.555-35.556V40m24.444-40h42.222C32.97 0 48.889-15.919 48.889-35.556v-8.888C48.889-64.081 32.97-80 13.333-80h-31.111c-19.637 0-35.555 15.919-35.555 35.556v2.222" class="primary" style="display:block" transform="translate(215.333 190)"/></g><g clip-path="url(#e)" style="display:none"><path class="secondary" style="display:none"/><path class="secondary" style="mix-blend-mode:multiply;display:none"/><path class="secondary" style="mix-blend-mode:multiply;display:none"/><g style="display:none"><path class="secondary"/><path class="secondary"/></g><g mask="url(#f)" style="mix-blend-mode:multiply;display:none"><path class="secondary"/><path class="secondary"/></g><path class="secondary" style="display:none"/><path class="secondary" style="mix-blend-mode:multiply;display:none"/><g fill="none" style="display:none"><path class="primary"/><path class="primary"/></g></g></g></svg>