<svg width="430" height="430" viewBox="0 0 430 430" fill="none" xmlns="http://www.w3.org/2000/svg">
<path d="M100 385H330C346.569 385 360 371.569 360 355V300H70V355C70 371.569 83.4315 385 100 385Z" fill="#EBE6EF"/>
<g style="mix-blend-mode:multiply">
<path d="M100 385H330C346.569 385 360 371.569 360 355V300H70V355C70 371.569 83.4315 385 100 385Z" fill="#EBE6EF"/>
</g>
<g style="mix-blend-mode:multiply" opacity="0.5">
<path d="M123.411 385H100C83.4315 385 70 371.569 70 355V300H360V330C360 343.807 348.807 355 335 355H110V360C110 370.435 115.328 379.625 123.411 385Z" fill="#EBE6EF"/>
</g>
<path d="M70 75C70 58.4315 83.4315 45 100 45H330C346.569 45 360 58.4315 360 75V305C360 321.569 346.569 335 330 335H100C83.4315 335 70 321.569 70 305V75Z" fill="#EBE6EF"/>
<g style="mix-blend-mode:multiply" opacity="0.5">
<path d="M100 45C83.4315 45 70 58.4315 70 75V305C70 321.569 83.4315 335 100 335H140C123.431 335 110 321.569 110 305V75C110 58.4315 123.431 45 140 45H100Z" fill="#EBE6EF"/>
</g>
<path d="M162 147.778V145.556C162 125.919 177.919 110 197.556 110H228.667C248.303 110 264.222 125.919 264.222 145.556V154.444C264.222 174.081 248.303 190 228.667 190H186.444M162 230V234.444C162 254.081 177.919 270 197.556 270H233.111C252.748 270 268.667 254.081 268.667 234.444V225.556C268.667 205.919 252.748 190 233.111 190" stroke="#3A3347" stroke-width="7" stroke-linecap="round" stroke-linejoin="round"/>
</svg>
