<svg width="430" height="430" viewBox="0 0 430 430" fill="none" xmlns="http://www.w3.org/2000/svg">
<path d="M100 385H330C346.569 385 360 371.569 360 355V300H70V355C70 371.569 83.4315 385 100 385Z" fill="#EBE6EF"/>
<g style="mix-blend-mode:multiply">
<path d="M100 385H330C346.569 385 360 371.569 360 355V300H70V355C70 371.569 83.4315 385 100 385Z" fill="#EBE6EF"/>
</g>
<g style="mix-blend-mode:multiply" opacity="0.5">
<path d="M123.411 385H100C83.4315 385 70 371.569 70 355V300H360V330C360 343.807 348.807 355 335 355H110V360C110 370.435 115.328 379.625 123.411 385Z" fill="#EBE6EF"/>
</g>
<path d="M70 75C70 58.4315 83.4315 45 100 45H330C346.569 45 360 58.4315 360 75V305C360 321.569 346.569 335 330 335H100C83.4315 335 70 321.569 70 305V75Z" fill="#EBE6EF"/>
<g style="mix-blend-mode:multiply" opacity="0.5">
<path d="M100 45C83.4315 45 70 58.4315 70 75V305C70 321.569 83.4315 335 100 335H140C123.431 335 110 321.569 110 305V75C110 58.4315 123.431 45 140 45H100Z" fill="#EBE6EF"/>
</g>
<path d="M169 161.111V145.556C169 125.919 184.919 110 204.556 110H231.222C250.859 110 266.778 125.919 266.778 145.556V160.741C266.778 170.075 261.898 178.729 253.911 183.559L181.867 224.441C173.88 229.271 169 237.925 169 247.259V270H271.222" stroke="#3A3347" stroke-width="7" stroke-linecap="round" stroke-linejoin="round"/>
</svg>
