<svg xmlns="http://www.w3.org/2000/svg" xmlns:xlink="http://www.w3.org/1999/xlink" width="500" zoomAndPan="magnify" viewBox="0 0 375 374.999991" height="500" preserveAspectRatio="xMidYMid meet" version="1.0"><defs><clipPath id="25e09b95e7"><path d="M 97 224 L 226 224 L 226 351.644531 L 97 351.644531 Z M 97 224 " clip-rule="nonzero"/></clipPath></defs><path fill="#bcbcbc" d="M 189.773438 121.53125 L 189.472656 120.621094 L 181.640625 97.136719 L 193.835938 68.675781 L 218.234375 52.414062 L 210.101562 76.808594 L 218.234375 133.726562 Z M 189.773438 121.53125 " fill-opacity="1" fill-rule="nonzero"/><path fill="#bcbcbc" d="M 356.472656 121.53125 L 356.78125 120.621094 L 364.601562 97.136719 L 344.273438 56.480469 L 319.878906 52.414062 L 328.011719 76.808594 L 328.011719 133.726562 Z M 356.472656 121.53125 " fill-opacity="1" fill-rule="nonzero"/><path fill="#fcbf95" d="M 209.328125 122.050781 L 214.167969 89.003906 L 209.710938 74.554688 C 209.710938 74.554688 219.445312 29.835938 269.65625 30.957031 C 269.65625 30.957031 311.746094 23.949219 336.140625 88.996094 L 328.011719 88.996094 L 329.613281 122.042969 L 342.851562 115.425781 L 347.910156 128.660156 L 328.011719 145.925781 C 328.011719 145.925781 304.046875 225.164062 250.980469 193.671875 C 250.980469 193.671875 213.265625 168.449219 205.589844 140.921875 L 197.902344 129.660156 L 201.148438 118.546875 Z M 209.328125 122.050781 " fill-opacity="1" fill-rule="nonzero"/><path fill="#fcbf95" d="M 32.613281 123.261719 C 33.953125 110.609375 38.367188 97.917969 47.152344 88.722656 C 58.195312 77.160156 74.847656 72.449219 90.835938 72.148438 C 95.589844 72.058594 100.371094 72.320312 105.03125 73.296875 C 117.320312 75.859375 128.28125 83.371094 136.175781 93.136719 C 144.0625 102.902344 149.023438 114.804688 151.757812 127.050781 C 151.871094 127.578125 152 128.132812 152.367188 128.53125 C 152.820312 129.019531 153.519531 129.148438 154.171875 129.320312 C 159.585938 130.742188 163.132812 136.628906 162.773438 142.214844 C 162.417969 147.800781 158.734375 152.835938 153.984375 155.796875 C 153.300781 156.226562 152.546875 156.664062 152.234375 157.414062 C 151.984375 158.023438 152.082031 158.714844 152.148438 159.371094 C 152.886719 166.871094 148.464844 173.910156 143.421875 179.503906 C 127.6875 196.972656 103.300781 206.792969 80.042969 203.347656 C 56.785156 199.898438 35.734375 182.507812 29.578125 159.8125 C 29.328125 158.894531 29.074219 157.925781 28.398438 157.257812 C 27.578125 156.453125 26.34375 156.292969 25.234375 155.964844 C 21.722656 154.933594 19.03125 151.84375 17.949219 148.339844 C 16.867188 144.84375 17.25 141.011719 18.445312 137.546875 C 20.527344 131.523438 25.105469 126.410156 30.863281 123.667969 " fill-opacity="1" fill-rule="nonzero"/><path fill="#38b47b" d="M 14.941406 271.957031 C 91.242188 271.648438 198.863281 270.679688 275.164062 270.371094 C 276.308594 270.363281 277.601562 270.296875 278.351562 269.429688 C 278.894531 268.792969 278.992188 267.90625 279.066406 267.078125 C 280.316406 252.777344 282.035156 237.472656 283.285156 223.171875 C 298.476562 248.605469 332.074219 271.957031 356.472656 288.21875 C 332.074219 296.351562 302.535156 312.335938 283.285156 328.875 C 283.757812 321.144531 282.816406 304.082031 283.285156 296.351562 C 231.03125 301.207031 173.046875 299.292969 120.652344 296.351562 C 97.792969 295.066406 71.863281 296.351562 31.203125 296.351562 C 28.066406 296.351562 18.082031 296.238281 14.941406 296.351562 C 11.800781 296.464844 14.941406 271.957031 14.941406 271.957031 Z M 14.941406 271.957031 " fill-opacity="1" fill-rule="nonzero"/><path fill="#000000" d="M 283.285156 331.925781 C 282.824219 331.925781 282.359375 331.820312 281.929688 331.609375 C 280.832031 331.0625 280.164062 329.917969 280.246094 328.695312 C 280.464844 324.949219 280.351562 318.703125 280.238281 312.671875 C 280.148438 308.109375 280.066406 303.433594 280.113281 299.691406 C 226.4375 304.359375 166.75 301.992188 120.472656 299.390625 C 106.171875 298.59375 90.597656 298.804688 70.894531 299.066406 C 59.285156 299.230469 46.25 299.398438 31.195312 299.398438 L 27.285156 299.382812 C 23.066406 299.359375 17.292969 299.3125 15.046875 299.398438 C 14.085938 299.488281 12.792969 298.847656 12.183594 298.171875 C 11.378906 297.300781 8.957031 294.636719 11.90625 271.574219 C 12.101562 270.054688 13.394531 268.925781 14.917969 268.917969 C 53.070312 268.761719 99.046875 268.4375 145.023438 268.121094 C 191 267.800781 236.992188 267.476562 275.136719 267.324219 C 275.601562 267.324219 275.886719 267.304688 276.066406 267.28125 C 275.976562 267.199219 276 266.949219 276.007812 266.808594 C 276.640625 259.636719 277.382812 252.230469 278.128906 244.816406 C 278.871094 237.433594 279.617188 230.042969 280.238281 222.902344 C 280.359375 221.59375 281.308594 220.496094 282.59375 220.203125 C 283.929688 219.902344 285.214844 220.46875 285.894531 221.609375 C 299.761719 244.832031 328.816406 266.136719 358.15625 285.683594 C 359.121094 286.332031 359.640625 287.480469 359.488281 288.625 C 359.324219 289.78125 358.535156 290.75 357.421875 291.113281 C 332.492188 299.425781 303.484375 315.53125 285.261719 331.191406 C 284.710938 331.671875 284 331.925781 283.285156 331.925781 Z M 283.285156 293.300781 C 284.074219 293.300781 284.832031 293.601562 285.410156 294.15625 C 286.050781 294.773438 286.382812 295.644531 286.328125 296.53125 C 286.109375 300.277344 286.222656 306.523438 286.335938 312.554688 C 286.402344 315.882812 286.464844 319.28125 286.472656 322.320312 C 303.722656 308.800781 327.800781 295.480469 349.722656 287.359375 C 324.578125 270.378906 300.199219 252.050781 285.53125 232.035156 C 285.097656 236.464844 284.660156 240.945312 284.203125 245.417969 C 283.464844 252.800781 282.71875 260.191406 282.097656 267.332031 C 282.007812 268.324219 281.871094 270.003906 280.652344 271.414062 C 278.925781 273.40625 276.382812 273.40625 275.15625 273.40625 C 237.015625 273.558594 191.039062 273.882812 145.0625 274.203125 C 100.160156 274.511719 55.25 274.828125 17.640625 274.992188 C 16.8125 282.242188 16.347656 290.066406 16.707031 293.261719 C 19.527344 293.210938 23.933594 293.253906 27.316406 293.277344 L 31.203125 293.292969 C 46.222656 293.292969 59.226562 293.121094 70.8125 292.960938 C 90.640625 292.691406 106.292969 292.472656 120.824219 293.300781 C 167.875 295.945312 228.835938 298.335938 282.992188 293.308594 C 283.097656 293.308594 283.195312 293.300781 283.285156 293.300781 Z M 16.957031 294.441406 L 17.03125 294.441406 Z M 16.957031 294.441406 " fill-opacity="1" fill-rule="nonzero"/><path fill="#d6ffff" d="M 206.035156 284.152344 C 206.035156 285.753906 205.957031 287.347656 205.800781 288.9375 C 205.644531 290.527344 205.410156 292.105469 205.097656 293.671875 C 204.785156 295.238281 204.398438 296.789062 203.933594 298.316406 C 203.46875 299.84375 202.933594 301.347656 202.320312 302.824219 C 201.710938 304.300781 201.027344 305.742188 200.273438 307.152344 C 199.519531 308.5625 198.699219 309.929688 197.8125 311.257812 C 196.925781 312.585938 195.972656 313.871094 194.960938 315.105469 C 193.945312 316.339844 192.875 317.523438 191.746094 318.652344 C 190.613281 319.78125 189.433594 320.851562 188.199219 321.867188 C 186.960938 322.878906 185.679688 323.832031 184.351562 324.71875 C 183.023438 325.605469 181.652344 326.425781 180.246094 327.179688 C 178.835938 327.933594 177.394531 328.617188 175.917969 329.226562 C 174.441406 329.839844 172.9375 330.375 171.410156 330.839844 C 169.878906 331.304688 168.332031 331.691406 166.765625 332.003906 C 165.195312 332.316406 163.617188 332.550781 162.027344 332.707031 C 160.4375 332.863281 158.84375 332.941406 157.246094 332.941406 C 155.648438 332.941406 154.054688 332.863281 152.464844 332.707031 C 150.871094 332.550781 149.292969 332.316406 147.726562 332.003906 C 146.160156 331.691406 144.613281 331.304688 143.082031 330.839844 C 141.554688 330.375 140.050781 329.839844 138.574219 329.226562 C 137.097656 328.617188 135.65625 327.933594 134.246094 327.179688 C 132.835938 326.425781 131.46875 325.605469 130.140625 324.71875 C 128.808594 323.832031 127.527344 322.878906 126.292969 321.867188 C 125.058594 320.851562 123.875 319.78125 122.746094 318.652344 C 121.617188 317.523438 120.542969 316.339844 119.53125 315.105469 C 118.515625 313.871094 117.566406 312.585938 116.679688 311.257812 C 115.789062 309.929688 114.96875 308.5625 114.214844 307.152344 C 113.464844 305.742188 112.78125 304.300781 112.167969 302.824219 C 111.558594 301.347656 111.019531 299.84375 110.554688 298.316406 C 110.09375 296.789062 109.703125 295.238281 109.394531 293.671875 C 109.082031 292.105469 108.847656 290.527344 108.691406 288.9375 C 108.535156 287.347656 108.457031 285.753906 108.457031 284.152344 C 108.457031 282.554688 108.535156 280.960938 108.691406 279.371094 C 108.847656 277.78125 109.082031 276.203125 109.394531 274.636719 C 109.703125 273.070312 110.09375 271.519531 110.554688 269.992188 C 111.019531 268.464844 111.558594 266.960938 112.167969 265.484375 C 112.78125 264.007812 113.464844 262.566406 114.214844 261.15625 C 114.96875 259.746094 115.789062 258.378906 116.679688 257.050781 C 117.566406 255.722656 118.515625 254.4375 119.53125 253.203125 C 120.542969 251.96875 121.617188 250.785156 122.746094 249.65625 C 123.875 248.527344 125.058594 247.453125 126.292969 246.441406 C 127.527344 245.425781 128.808594 244.476562 130.140625 243.589844 C 131.46875 242.703125 132.835938 241.882812 134.246094 241.128906 C 135.65625 240.375 137.097656 239.691406 138.574219 239.082031 C 140.050781 238.46875 141.554688 237.929688 143.082031 237.46875 C 144.613281 237.003906 146.160156 236.617188 147.726562 236.304688 C 149.292969 235.992188 150.871094 235.757812 152.464844 235.601562 C 154.054688 235.445312 155.648438 235.367188 157.246094 235.367188 C 158.84375 235.367188 160.4375 235.445312 162.027344 235.601562 C 163.617188 235.757812 165.195312 235.992188 166.765625 236.304688 C 168.332031 236.617188 169.878906 237.003906 171.410156 237.46875 C 172.9375 237.929688 174.441406 238.46875 175.917969 239.082031 C 177.394531 239.691406 178.835938 240.375 180.246094 241.128906 C 181.652344 241.882812 183.023438 242.703125 184.351562 243.589844 C 185.679688 244.476562 186.960938 245.425781 188.199219 246.441406 C 189.433594 247.453125 190.613281 248.527344 191.746094 249.65625 C 192.875 250.785156 193.945312 251.96875 194.960938 253.203125 C 195.972656 254.4375 196.925781 255.722656 197.8125 257.050781 C 198.699219 258.378906 199.519531 259.746094 200.273438 261.15625 C 201.027344 262.566406 201.710938 264.007812 202.320312 265.484375 C 202.933594 266.960938 203.46875 268.464844 203.933594 269.992188 C 204.398438 271.519531 204.785156 273.070312 205.097656 274.636719 C 205.410156 276.203125 205.644531 277.78125 205.800781 279.371094 C 205.957031 280.960938 206.035156 282.554688 206.035156 284.152344 Z M 206.035156 284.152344 " fill-opacity="1" fill-rule="nonzero"/><path fill="#38b47b" d="M 161.3125 349.203125 C 134.207031 349.203125 100.324219 321.851562 100.324219 288.21875 C 100.324219 254.589844 113.878906 227.234375 161.3125 227.234375 C 188.414062 227.234375 222.296875 254.589844 222.296875 288.21875 C 222.296875 321.851562 194.945312 349.203125 161.3125 349.203125 Z M 161.3125 254.335938 C 142.632812 254.335938 127.425781 269.535156 127.425781 288.21875 C 127.425781 306.90625 147.753906 322.101562 161.3125 322.101562 C 179.988281 322.101562 195.195312 306.90625 195.195312 288.21875 C 195.195312 269.535156 188.421875 254.335938 161.3125 254.335938 Z M 161.3125 254.335938 " fill-opacity="1" fill-rule="nonzero"/><g clip-path="url(#25e09b95e7)"><path fill="#000000" d="M 161.3125 352.253906 C 132.304688 352.253906 97.273438 323.6875 97.273438 288.21875 C 97.273438 245.726562 118.816406 224.1875 161.3125 224.1875 C 190.316406 224.1875 225.347656 252.75 225.347656 288.21875 C 225.347656 323.535156 196.628906 352.253906 161.3125 352.253906 Z M 161.3125 230.285156 C 122.328125 230.285156 103.375 249.238281 103.375 288.21875 C 103.375 319.417969 135.234375 346.15625 161.3125 346.15625 C 193.261719 346.15625 219.25 320.167969 219.25 288.21875 C 219.25 257.019531 187.390625 230.285156 161.3125 230.285156 Z M 161.3125 325.152344 C 146.78125 325.152344 124.378906 309.296875 124.378906 288.21875 C 124.378906 267.851562 140.941406 251.289062 161.3125 251.289062 C 186.167969 251.289062 198.246094 263.363281 198.246094 288.21875 C 198.246094 308.589844 181.679688 325.152344 161.3125 325.152344 Z M 161.3125 257.386719 C 144.308594 257.386719 130.476562 271.21875 130.476562 288.21875 C 130.476562 304.945312 149.414062 319.054688 161.3125 319.054688 C 178.316406 319.054688 192.148438 305.222656 192.148438 288.21875 C 192.148438 266.898438 182.632812 257.386719 161.3125 257.386719 Z M 161.3125 257.386719 " fill-opacity="1" fill-rule="nonzero"/></g><path fill="#000000" d="M 153.976562 297.601562 L 154.734375 292.539062 C 155.511719 287.277344 156.140625 282 156.609375 276.714844 C 156.804688 274.476562 158.808594 272.835938 161.027344 273.03125 C 163.261719 273.226562 164.914062 275.210938 164.710938 277.445312 C 164.367188 281.210938 163.953125 284.96875 163.472656 288.714844 C 166.644531 288.511719 170.65625 288.292969 173.507812 288.292969 C 175.753906 288.292969 177.574219 290.113281 177.574219 292.359375 C 177.574219 294.601562 175.753906 296.425781 173.507812 296.425781 C 168.5 296.425781 159.164062 297.179688 159.082031 297.1875 Z M 153.976562 297.601562 " fill-opacity="1" fill-rule="nonzero"/><path fill="#000000" d="M 155.578125 125.523438 C 152.421875 111.78125 146.957031 100.023438 139.332031 90.589844 C 130.386719 79.507812 118.496094 71.953125 105.871094 69.320312 C 103.355469 68.800781 100.648438 68.472656 97.792969 68.277344 C 101.648438 59.382812 109.253906 52.269531 118.464844 49.203125 C 120.597656 48.496094 121.742188 46.1875 121.035156 44.066406 C 120.320312 41.925781 118.027344 40.804688 115.886719 41.488281 C 104.113281 45.40625 94.339844 54.644531 89.753906 66.179688 C 89.492188 66.839844 89.476562 67.507812 89.550781 68.15625 C 89.152344 68.171875 88.769531 68.207031 88.378906 68.222656 C 85.125 60.132812 78.335938 53.554688 70.113281 50.617188 C 68 49.863281 65.699219 50.96875 64.933594 53.089844 C 64.179688 55.203125 65.277344 57.53125 67.398438 58.285156 C 72.660156 60.171875 77.042969 64.140625 79.695312 69.058594 C 65.136719 71.199219 52.753906 76.972656 44.214844 85.914062 C 34.214844 96.390625 30.335938 109.828125 28.902344 120.125 C 22.226562 123.367188 17.023438 129.230469 14.609375 136.230469 C 12.996094 140.882812 12.8125 145.484375 14.070312 149.558594 C 15.625 154.566406 19.46875 158.519531 24.089844 159.878906 C 24.136719 159.894531 24.894531 160.097656 24.933594 160.105469 C 25.171875 160.167969 25.449219 160.21875 25.40625 160.046875 C 25.480469 160.234375 25.578125 160.578125 25.660156 160.894531 C 32.066406 184.523438 54.191406 203.632812 79.449219 207.371094 C 82.785156 207.875 86.148438 208.109375 89.515625 208.109375 C 110.511719 208.109375 131.621094 198.6875 146.429688 182.238281 C 153.382812 174.519531 156.691406 166.96875 156.195312 159.21875 C 162.441406 155.300781 166.410156 149.046875 166.832031 142.476562 C 167.3125 134.953125 162.75 127.90625 155.578125 125.523438 Z M 151.765625 152.40625 C 150.835938 152.972656 149.285156 153.933594 148.488281 155.859375 C 147.863281 157.363281 148.007812 158.761719 148.113281 159.78125 C 148.617188 164.835938 146.023438 170.5625 140.414062 176.796875 C 125.246094 193.628906 101.820312 202.476562 80.652344 199.328125 C 58.488281 196.042969 39.109375 179.359375 33.480469 158.625 C 33.164062 157.488281 32.683594 155.761719 31.269531 154.378906 C 29.839844 152.964844 28.105469 152.519531 26.390625 152.078125 C 24.375 151.484375 22.585938 149.550781 21.835938 147.160156 C 21.105469 144.792969 21.277344 141.859375 22.300781 138.890625 C 24.007812 133.929688 27.871094 129.621094 32.621094 127.367188 C 32.636719 127.359375 32.660156 127.351562 32.675781 127.34375 C 34.710938 127.320312 36.449219 125.773438 36.660156 123.703125 C 37.636719 114.421875 40.765625 101.308594 50.09375 91.542969 C 62.421875 78.648438 80.960938 76.417969 90.914062 76.230469 C 95.988281 76.117188 100.347656 76.484375 104.21875 77.289062 C 115.019531 79.539062 125.246094 86.085938 133.019531 95.714844 C 139.972656 104.316406 144.949219 115.164062 147.804688 127.96875 C 147.976562 128.71875 148.285156 130.109375 149.390625 131.320312 C 150.601562 132.628906 152.128906 133.019531 153.148438 133.28125 C 156.464844 134.15625 158.976562 138.0625 158.734375 141.988281 C 158.480469 145.882812 155.839844 149.859375 151.765625 152.40625 Z M 151.765625 152.40625 " fill-opacity="1" fill-rule="nonzero"/><path fill="#000000" d="M 270.691406 150.722656 C 267.414062 150.722656 265.175781 149.371094 263.777344 148.054688 C 256.988281 141.648438 259.144531 125.402344 261.777344 111.96875 C 262.207031 109.765625 264.378906 108.308594 266.542969 108.757812 C 268.746094 109.1875 270.1875 111.324219 269.753906 113.527344 C 265.4375 135.605469 268.046875 140.890625 269.363281 142.144531 C 269.585938 142.347656 270.152344 142.890625 272.203125 142.371094 C 274.367188 141.800781 276.585938 143.125 277.148438 145.296875 C 277.699219 147.476562 276.390625 149.6875 274.21875 150.25 C 272.925781 150.582031 271.746094 150.722656 270.691406 150.722656 Z M 270.691406 150.722656 " fill-opacity="1" fill-rule="nonzero"/><path fill="#000000" d="M 274.902344 169.253906 C 269.160156 169.253906 263.445312 168.578125 257.835938 167.242188 C 255.648438 166.722656 254.296875 164.535156 254.824219 162.347656 C 255.335938 160.160156 257.507812 158.804688 259.730469 159.332031 C 265.730469 160.761719 271.933594 161.355469 278.042969 161.039062 C 280.464844 160.933594 282.1875 162.667969 282.292969 164.910156 C 282.398438 167.15625 280.675781 169.058594 278.429688 169.164062 C 277.253906 169.226562 276.082031 169.253906 274.902344 169.253906 Z M 274.902344 169.253906 " fill-opacity="1" fill-rule="nonzero"/><path fill="#9fdadf" d="M 228.144531 123.523438 C 233.351562 127.6875 240.292969 129.960938 246.808594 128.570312 C 253.320312 127.179688 259.039062 121.667969 259.664062 115.035156 C 259.941406 112.113281 259.265625 109.171875 258.160156 106.457031 C 256.144531 101.511719 252.539062 97.097656 247.75 94.730469 C 242.960938 92.363281 236.960938 92.257812 232.390625 95.03125 C 228.308594 97.511719 225.746094 101.941406 224.386719 106.519531 C 223.378906 109.933594 222.949219 113.585938 223.65625 117.074219 C 224.371094 120.5625 228.144531 123.523438 228.144531 123.523438 Z M 228.144531 123.523438 " fill-opacity="1" fill-rule="nonzero"/><path fill="#9fdadf" d="M 266.160156 111.210938 C 268.992188 111.316406 271.820312 111.554688 274.625 111.917969 C 275.59375 112.042969 277.855469 114.734375 277.910156 115.667969 C 278.261719 121.847656 282.308594 127.6875 287.976562 130.175781 C 290.996094 131.5 294.328125 131.90625 297.621094 132.011719 C 300.972656 132.117188 304.484375 131.863281 307.339844 130.117188 C 310.617188 128.117188 312.542969 124.402344 313.316406 120.636719 C 314.738281 113.675781 312.453125 105.992188 307.234375 101.179688 C 302.011719 96.363281 293.972656 94.730469 287.402344 97.4375 C 287.402344 97.4375 275.171875 101.203125 275.171875 109.332031 " fill-opacity="1" fill-rule="nonzero"/><path fill="#000000" d="M 365.414062 98.167969 C 365.570312 83.941406 360.246094 70.246094 350.820312 60.585938 C 341.816406 51.367188 330.855469 47.121094 318.074219 48.105469 C 315.277344 45 312.007812 42.113281 308.332031 39.480469 C 290.230469 26.574219 266.070312 23.4375 245.269531 31.28125 C 235.578125 34.949219 226.8125 40.949219 219.710938 48.625 C 219.207031 48.429688 218.746094 48.285156 218.085938 48.351562 C 203.359375 48.878906 177.0625 66.871094 177.0625 100.835938 C 177.0625 105.578125 177.386719 111.757812 179.898438 117.472656 C 182.363281 123.050781 186.558594 127.359375 191.503906 129.628906 C 191.367188 130.175781 191.316406 130.757812 191.421875 131.351562 C 192.234375 135.859375 195.140625 139.824219 199.1875 141.964844 C 199.726562 142.25 200.285156 142.5 200.847656 142.761719 C 201.59375 143.09375 202.359375 143.4375 202.652344 143.738281 C 202.96875 144.070312 203.296875 144.980469 203.644531 145.957031 C 208.875 160.511719 217.808594 173.089844 231.796875 185.554688 C 245.628906 197.867188 259.28125 204.0625 272.542969 204.0625 C 276.195312 204.0625 279.8125 203.589844 283.390625 202.65625 C 316.640625 193.945312 332.507812 148.746094 332.695312 148.207031 C 333.164062 146.820312 333.652344 145.378906 334.335938 144.769531 C 334.71875 144.429688 335.441406 144.085938 336.199219 143.730469 C 336.703125 143.492188 337.191406 143.257812 337.679688 143.003906 C 344.957031 139.109375 350.257812 135.644531 352.324219 126.5 C 352.414062 126.09375 352.382812 125.695312 352.347656 125.296875 C 360.390625 120.515625 365.277344 110.464844 365.414062 98.167969 Z M 187.347656 114.203125 C 185.445312 109.871094 185.195312 104.789062 185.195312 100.835938 C 185.195312 75.652344 201.578125 61.9375 212.539062 57.8125 C 210.742188 60.5625 209.132812 63.449219 207.742188 66.449219 C 204.742188 72.90625 204.523438 80.445312 207.125 87.671875 C 208.417969 91.25 209.078125 95.753906 209.078125 101.046875 C 209.078125 105.550781 208.441406 110.023438 207.703125 114.707031 C 206.695312 113.707031 205.636719 112.765625 204.53125 111.894531 C 203.652344 111.203125 202.523438 110.917969 201.410156 111.066406 C 200.300781 111.234375 199.308594 111.847656 198.675781 112.765625 L 192.828125 121.171875 C 190.5625 119.5625 188.632812 117.132812 187.347656 114.203125 Z M 333.824219 135.824219 L 332.726562 136.363281 C 331.570312 136.898438 330.140625 137.574219 328.863281 138.734375 C 326.628906 140.761719 325.710938 143.4375 324.960938 145.648438 C 321.007812 157.167969 305.460938 188.464844 281.316406 194.792969 C 267.542969 198.402344 252.679688 193.253906 237.203125 179.480469 C 224.265625 167.960938 216.039062 156.4375 211.230469 143.046875 C 210.703125 141.550781 210.035156 139.695312 208.523438 138.117188 C 207.132812 136.664062 205.484375 135.921875 204.15625 135.335938 C 203.765625 135.167969 203.367188 134.996094 202.984375 134.792969 C 201.148438 133.824219 199.78125 131.953125 199.425781 129.914062 C 199.261719 129.027344 198.773438 128.320312 198.171875 127.75 L 202.703125 121.230469 C 204.269531 122.914062 205.652344 124.789062 206.785156 126.78125 C 207.644531 128.3125 209.417969 129.15625 211.117188 128.773438 C 212.851562 128.433594 214.152344 127.019531 214.355469 125.269531 C 214.664062 122.703125 215.070312 120.140625 215.484375 117.570312 C 216.332031 112.226562 217.207031 106.699219 217.207031 101.054688 C 217.207031 94.820312 216.386719 89.386719 214.777344 84.921875 C 212.90625 79.726562 213.019531 74.386719 215.109375 69.882812 C 221.746094 55.609375 233.789062 44.316406 248.140625 38.902344 C 266.152344 32.113281 287.929688 34.933594 303.597656 46.105469 C 306.722656 48.332031 309.496094 50.773438 311.859375 53.367188 C 312.160156 54.644531 313.046875 55.652344 314.195312 56.15625 C 316.609375 59.269531 318.601562 62.644531 320.113281 65.3125 C 322.824219 70.085938 325.328125 75.09375 327.554688 80.199219 C 329.050781 83.597656 328.816406 85.117188 328.480469 85.453125 C 328.335938 85.597656 327.960938 85.835938 327.628906 86.046875 C 326.9375 86.492188 326.074219 87.046875 325.261719 87.890625 C 322.554688 90.738281 322.585938 94.582031 322.601562 96.640625 C 322.636719 105.910156 323.308594 115.285156 324.601562 124.515625 C 324.832031 126.179688 326.074219 127.53125 327.710938 127.90625 C 329.296875 128.269531 331.050781 127.621094 331.988281 126.230469 C 334.027344 123.230469 336.800781 120.773438 339.988281 119.082031 L 341.695312 122.496094 C 342.054688 123.207031 342.890625 124.410156 344.128906 125.402344 C 342.785156 130.484375 340.144531 132.441406 333.824219 135.824219 Z M 348.566406 118.058594 L 345.550781 112.023438 C 344.851562 110.617188 343.417969 109.773438 341.914062 109.773438 C 341.476562 109.773438 341.046875 109.835938 340.613281 109.984375 C 337.371094 111.082031 334.335938 112.742188 331.644531 114.847656 C 331.058594 108.765625 330.757812 102.65625 330.734375 96.582031 C 330.71875 94.40625 330.953125 93.699219 331.148438 93.492188 C 331.277344 93.363281 331.675781 93.105469 332.003906 92.902344 C 332.652344 92.484375 333.457031 91.972656 334.214844 91.210938 C 336.449219 88.980469 338.417969 84.6875 335.003906 76.929688 C 332.660156 71.574219 330.035156 66.320312 327.195312 61.300781 C 326.335938 59.773438 325.320312 58.027344 324.148438 56.203125 C 332.117188 56.789062 338.996094 60.125 345.003906 66.269531 C 352.941406 74.402344 357.40625 85.996094 357.285156 98.089844 C 357.242188 101.527344 356.511719 112.789062 348.566406 118.058594 Z M 348.566406 118.058594 " fill-opacity="1" fill-rule="nonzero"/><path fill="#000000" d="M 92.933594 181.621094 C 86.816406 181.621094 80.710938 180.125 75.398438 177.171875 C 69.714844 174.007812 64.632812 169.246094 59.414062 162.171875 C 58.078125 160.363281 58.46875 157.820312 60.265625 156.488281 C 62.089844 155.160156 64.625 155.535156 65.953125 157.339844 C 70.457031 163.4375 74.710938 167.488281 79.34375 170.058594 C 86.742188 174.164062 96.152344 174.636719 103.949219 171.246094 C 111.75 167.84375 114.683594 165.324219 116.691406 157.144531 C 117.222656 154.972656 119.417969 153.609375 121.605469 154.167969 C 123.792969 154.707031 125.125 156.902344 124.582031 159.082031 C 121.78125 170.472656 116.53125 174.628906 107.1875 178.699219 C 102.730469 180.652344 97.835938 181.621094 92.933594 181.621094 Z M 92.933594 181.621094 " fill-opacity="1" fill-rule="nonzero"/><path fill="#000000" d="M 68.75 138.613281 C 65.902344 138.613281 63.625 136.558594 63.542969 133.867188 C 63.503906 132.515625 64.300781 131.027344 65.414062 130.164062 C 65.164062 130.140625 64.902344 130.109375 64.609375 130.148438 C 62.84375 130.207031 61.292969 130.695312 60.226562 131.53125 C 58.460938 132.90625 55.910156 132.613281 54.519531 130.839844 C 53.136719 129.066406 53.445312 126.515625 55.210938 125.132812 C 57.664062 123.214844 60.820312 122.140625 64.347656 122.019531 C 68.976562 122.019531 72.5625 123.539062 74.554688 126.589844 C 76.089844 128.980469 76.195312 132.199219 74.824219 134.816406 C 73.59375 137.132812 71.382812 138.558594 68.910156 138.621094 C 68.863281 138.613281 68.796875 138.613281 68.75 138.613281 Z M 68.75 138.613281 " fill-opacity="1" fill-rule="nonzero"/><path fill="#000000" d="M 117.539062 138.613281 C 114.691406 138.613281 112.414062 136.558594 112.335938 133.867188 C 112.292969 132.515625 113.089844 131.027344 114.203125 130.164062 C 113.953125 130.140625 113.691406 130.109375 113.398438 130.148438 C 111.636719 130.207031 110.082031 130.695312 109.015625 131.53125 C 107.25 132.90625 104.699219 132.613281 103.308594 130.839844 C 101.925781 129.066406 102.234375 126.515625 104 125.132812 C 106.453125 123.214844 109.609375 122.140625 113.140625 122.019531 C 117.765625 122.019531 121.351562 123.539062 123.34375 126.589844 C 124.882812 128.980469 124.988281 132.199219 123.613281 134.816406 C 122.386719 137.132812 120.171875 138.558594 117.699219 138.621094 C 117.652344 138.613281 117.585938 138.613281 117.539062 138.613281 Z M 117.539062 138.613281 " fill-opacity="1" fill-rule="nonzero"/><path fill="#000000" d="M 242.921875 133.035156 C 236.96875 133.035156 230.765625 130.816406 225.632812 126.710938 C 225.054688 126.253906 220.648438 122.652344 219.679688 117.878906 C 218.898438 114.042969 219.175781 109.835938 220.5 105.367188 C 221.785156 100.992188 224.535156 95.046875 230.285156 91.558594 C 235.878906 88.160156 243.269531 87.980469 249.5625 91.085938 C 254.996094 93.769531 259.386719 98.683594 261.933594 104.917969 C 263.429688 108.570312 264.03125 112.097656 263.730469 115.40625 C 262.957031 123.523438 256.207031 130.726562 247.667969 132.539062 C 246.109375 132.875 244.523438 133.035156 242.921875 133.035156 Z M 240.15625 97.015625 C 238.113281 97.015625 236.140625 97.519531 234.503906 98.511719 C 231.746094 100.1875 229.542969 103.4375 228.292969 107.675781 C 227.355469 110.855469 227.136719 113.75 227.648438 116.269531 C 227.925781 117.628906 229.578125 119.464844 230.667969 120.335938 C 230.675781 120.335938 230.691406 120.351562 230.691406 120.351562 C 235.316406 124.066406 241.035156 125.644531 245.960938 124.597656 C 251.035156 123.515625 255.191406 119.238281 255.621094 114.652344 C 255.800781 112.667969 255.402344 110.421875 254.402344 108 C 252.628906 103.65625 249.554688 100.160156 245.960938 98.382812 C 244.117188 97.46875 242.105469 97.015625 240.15625 97.015625 Z M 240.15625 97.015625 " fill-opacity="1" fill-rule="nonzero"/><path fill="#000000" d="M 298.890625 136.09375 C 298.402344 136.09375 297.9375 136.085938 297.484375 136.078125 C 292.953125 135.9375 289.417969 135.246094 286.34375 133.898438 C 279.511719 130.898438 274.59375 124.019531 273.902344 116.617188 C 273.730469 116.382812 273.472656 116.082031 273.25 115.855469 C 270.851562 115.570312 268.429688 115.375 266.007812 115.285156 C 263.761719 115.203125 262.015625 113.308594 262.09375 111.066406 C 262.183594 108.828125 263.949219 106.910156 266.316406 107.164062 C 267.957031 107.21875 269.601562 107.332031 271.234375 107.472656 C 272.746094 97.8125 285.613281 93.738281 286.1875 93.558594 C 293.800781 90.414062 303.5 92.226562 309.980469 98.203125 C 316.15625 103.878906 319.015625 113.007812 317.292969 121.457031 C 316.195312 126.863281 313.40625 131.175781 309.453125 133.589844 C 306.015625 135.679688 302.144531 136.09375 298.890625 136.09375 Z M 279.121094 110.226562 C 280.699219 111.828125 281.886719 113.917969 281.96875 115.457031 C 282.230469 120.050781 285.375 124.585938 289.613281 126.441406 C 291.695312 127.359375 294.28125 127.832031 297.734375 127.9375 C 300.152344 128.011719 303.09375 127.929688 305.21875 126.636719 C 307.191406 125.433594 308.6875 122.945312 309.324219 119.824219 C 310.496094 114.097656 308.582031 107.960938 304.46875 104.164062 C 300.320312 100.347656 293.945312 99.121094 288.9375 101.1875 C 286.164062 102.074219 279.226562 105.179688 279.226562 109.324219 C 279.21875 109.644531 279.1875 109.945312 279.121094 110.226562 Z M 279.121094 110.226562 " fill-opacity="1" fill-rule="nonzero"/></svg>